<svg width="1920" height="1080" viewBox="0 0 1920 1080" fill="none" xmlns="http://www.w3.org/2000/svg">
<g clip-path="url(#clip0_9_2)">
<rect width="1920" height="1080" fill="white"/>
<path d="M424.5 915.5C440.184 623.78 878.221 930.034 1170 915.5C1467.62 900.675 1817.18 557.312 1920 837C1955.98 934.867 1920 1104 1920 1104C1920 1104 649.297 1641.56 464 1104C439.49 1032.89 420.462 990.604 424.5 915.5Z" fill="#FFCC33"/>
<path d="M-114 0C-45.7963 -250.583 482.796 -250.583 551 0C569.564 68.2037 582.031 117.491 551 181C492.617 300.49 207.5 128 207.5 128C79.408 108.864 14.092 200.136 -114 181C-242.092 161.864 -132.564 68.2037 -114 0Z" fill="#FFCC33"/>
<circle cx="197" cy="511" r="82.5" stroke="#FFCC33" stroke-width="35"/>
</g>
<defs>
<clipPath id="clip0_9_2">
<rect width="1920" height="1080" fill="white"/>
</clipPath>
</defs>
</svg>
