<svg xmlns="http://www.w3.org/2000/svg" width="1920" height="1080" fill="none" viewBox="0 0 1920 1080"><g clip-path="url(#clip0_9_3)"><rect width="1920" height="1080" fill="#fff"/><path fill="#FC3" d="M-9.99999 2.28882e-05C98.9045 -83.8827 303.873 -132.071 342 2.28882e-05C368.764 92.708 234.805 125.034 232.5 221.5C230.077 322.895 317.187 361.692 282.5 457C248.393 550.715 184.66 579.196 89 551C26.8244 532.674 27.5621 509.828 -9.99999 457C-113.42 311.55 -151.39 108.905 -9.99999 2.28882e-05Z"/><path fill="#FC3" d="M1675 290C1706.15 214.797 1762.61 166.596 1844 168C1923.5 169.372 1960.94 225.186 2007 290C2094.32 412.879 2092.03 551.531 2007 676C1969.85 730.375 1941.88 763.634 1880.5 787.5C1805.55 816.644 1730.28 832.899 1675 774.5C1605.97 701.579 1742.31 626.401 1741 526C1739.75 430.308 1638.38 378.416 1675 290Z"/><rect width="200" height="50" x="246" y="859" fill="#FC3"/><rect width="200" height="50" x="321" y="984" fill="#FC3" transform="rotate(-90 321 984)"/></g><defs><clipPath id="clip0_9_3"><rect width="1920" height="1080" fill="#fff"/></clipPath></defs></svg>